<?xml version="1.0" encoding="UTF-8"?>
<svg class="w-5 inline-block transition-transform group-hover:rotate-[20deg]" width="20" height="20" fill="currentColor" viewBox="0 0 40 40" xmlns="http://www.w3.org/2000/svg">
<g transform="matrix(1.0754 0 0 1.1001 -1.0565 -.97822)">
<path d="m13.319 4.13s-3.006-0.05-3.818 5.405c-0.368 4.011 3.067 5.981 4.619 5.962 1.436-2e-3 3.518-1.346 3.366-5.732-0.152-4.385-2.506-5.615-4.167-5.635" fill="currentColor"/>
</g>
<path d="m3.12 15.575c-0.494 0.445-2.483 2.449 0.388 7.34s5.12 0.973 5.415 0.54c0.295-0.434 2.487-3.149-0.259-6.531-2.746-3.381-5.544-1.349-5.544-1.349z"/>
<g transform="matrix(1.0072 0 0 .98186 -.20544 .28133)">
<path d="m24.03 4.13c-1.982 0.179-3.558 1.195-3.108 5.684 0.451 4.49 3.478 5.799 4.48 5.685s3.438-2.978 3.025-5.685c-0.414-2.707-1.59-5.518-4.397-5.684z"/>
</g>
<path d="m32.114 11.35s-2.918 1.805-1.25 5.239 3.813 2.661 5.136 1.999c1.322-0.661 2.02-3.81-0.069-5.923-2.088-2.114-3.817-1.315-3.817-1.315z"/>
</svg>
